<?xml version="1.0" encoding="utf-8"?>
<!-- Generator: Adobe Illustrator 27.8.1, SVG Export Plug-In . SVG Version: 6.00 Build 0)  -->
<svg version="1.1" id="Layer_1" xmlns="http://www.w3.org/2000/svg" xmlns:xlink="http://www.w3.org/1999/xlink" x="0px" y="0px"
	 viewBox="0 0 2500 948" style="enable-background:new 0 0 2500 948;" xml:space="preserve">
<style type="text/css">
	.st0{fill-rule:evenodd;clip-rule:evenodd;fill:#29ABE2;}
	.st1{fill:#222222;}
	.st2{stroke:#000000;stroke-miterlimit:10;}
	.st3{fill:#29ABE2;stroke:#29ABE2;stroke-miterlimit:10;}
	.st4{fill:#FFFFFF;}
</style>
<circle class="st0" cx="513.2" cy="474" r="430.4"/>
<circle class="st0" cx="2174.7" cy="328.2" r="54.4"/>
<path class="st1" d="M2059,559.8c26.7,0,42.1-20,41.1-39.5c-0.3-7.4-1.1-14.8-2.6-22.1c-16.4-70.9-73.9-123.3-142.3-123.3
	c-81.1,0-146.9,73.4-146.9,163.8s65.7,163.8,146.9,163.8c50.9,0,87.3-18.5,113.5-47.8c12.8-14.4,10.3-36.5-5.1-47.3
	c-12.8-8.7-28.8-5.6-40.6,4.1c-11.3,9.8-32.9,29.3-67.8,29.3c-41.1,0-76-35.4-83.7-82.2H2059V559.8z M1874.1,505.4
	c11.8-40.1,43.7-68.3,80.6-68.3c37,0,68.8,28.8,80.6,68.3L1874.1,505.4L1874.1,505.4z"/>
<path class="st1" d="M1234.5,410.1c0-15.4-11.3-27.7-25.7-30.3c-44.7-6.7-86.8,9.8-110.9,40.1v-4.1c0-19-15.4-30.8-30.8-30.8
	c-17,0-30.8,13.8-30.8,30.8v251.6c0,16.4,12.3,30.8,28.8,31.8c18,1,32.9-12.8,32.9-30.8v-130c0-57.5,43.1-104.8,102.7-98.1h6.2
	C1222.1,439.3,1234.5,426,1234.5,410.1L1234.5,410.1z"/>
<path class="st1" d="M2205.5,440.6c0-17-13.8-30.8-30.8-30.8s-30.8,13.8-30.8,30.8V666c0,17,13.8,30.8,30.8,30.8
	c17-0.1,30.8-13.8,30.8-30.8V440.6z"/>
<path class="st1" d="M1514.3,375.3c-17,0.1-30.8,13.8-30.8,30.8v0.1c-21.1-21.1-47.3-31.3-78.6-31.3c-81.1,0-146.9,73.4-146.9,163.8
	s65.7,163.8,146.9,163.8c31.3,0,58-10.8,79.1-31.8c2.6,14.4,15.4,25.2,30.3,25.2c17,0,30.8-13.8,30.8-30.8V406.2
	C1545.1,389.2,1531.3,375.4,1514.3,375.3z M1405.5,641.5c-47.3,0-85.3-45.7-85.3-102.7c0-56.5,38-102.7,85.3-102.7
	s85.3,45.7,85.3,102.7C1490.7,595.8,1452.2,641.5,1405.5,641.5z"/>
<path class="st1" d="M2361.6,666.6v-229h27.2c14.4,0,27.2-10.8,28.2-25.7c1-15.9-11.8-29.3-27.2-29.3h-28.2v-43.1
	c0-16.4-12.3-30.8-28.8-31.8c-18-1-32.9,12.8-32.9,30.8v44.7h-25.7c-14.4,0-27.2,10.8-28.2,25.7c-1,15.9,11.8,29.3,27.2,29.3h26.2
	v229c0.1,17,13.8,30.8,30.8,30.8C2348.3,696.9,2361.6,683.5,2361.6,666.6L2361.6,666.6z"/>
<path class="st1" d="M1727.1,668.9v-229h27.2c14.4,0,27.2-10.8,28.2-25.7c1-15.9-11.8-29.3-27.2-29.3h-28.2v-43.1
	c0-16.4-12.3-30.8-28.8-31.8c-18-1-32.9,12.8-32.9,30.8v44.7h-25.7c-14.4,0-27.2,10.8-28.2,25.7c-1,15.9,11.8,29.3,27.2,29.3h26.2
	v229c0.1,17,13.8,30.8,30.8,30.8C1713.8,699.2,1727.1,685.8,1727.1,668.9L1727.1,668.9z"/>
<g>
	<g>
		<path class="st2" d="M1043,819.4c0-17.8,11.8-28.8,24.8-28.8c6.5,0,11.6,2.6,16.4,7h0.2l-0.5-10v-21h9.3v80.1h-7.7l-0.8-7.2h-0.3
			c-4.5,4.6-11,8.5-17.9,8.5C1052.4,848,1043,837.6,1043,819.4z M1083.9,832v-27.2c-5-4.6-9.6-6.3-14.3-6.3
			c-9.5,0-17.1,8.3-17.1,20.8c0,13.1,6.1,20.8,16.1,20.8C1074,840.1,1079.1,837.4,1083.9,832z"/>
		<path class="st2" d="M1111,819.4c0-18.3,12.6-28.8,27-28.8s27,10.5,27,28.8c0,18.1-12.6,28.6-27,28.6S1111,837.5,1111,819.4z
			 M1155.5,819.4c0-12.6-7-21-17.4-21s-17.4,8.4-17.4,21c0,12.5,7,20.8,17.4,20.8S1155.5,831.9,1155.5,819.4z"/>
		<path class="st2" d="M1182.8,791.9h7.7l0.8,9.2h0.5c5.7-6,12-10.6,20.6-10.6c12.9,0,18.9,7.6,18.9,22v34h-9.3v-32.7
			c0-10.3-3.6-15.2-12.5-15.2c-6.5,0-10.9,3.3-17.2,9.8v38.1h-9.3v-54.6H1182.8z"/>
		<path class="st2" d="M1264.8,802c7.5-4.4,11.8-10.9,11.8-19.5l-2.2-8.8l6.2,7.5c-1.9,2-4.5,3.6-7,3.6c-4.7,0-8-3.4-8-8.1
			c0-5.2,3.5-8.8,8.3-8.8c6,0,10.1,5.1,10.1,13.7c0,11.2-6,20.5-16.1,25.7L1264.8,802z"/>
		<path class="st2" d="M1331.7,825.4v-25.9h-15.5v-7l15.9-0.6l1.2-17.6h7.8v17.6h26.8v7.5H1341v26c0,9.8,3.3,14.9,13.8,14.9
			c5.1,0,9.1-1,13.1-2.5l2,6.9c-5,1.8-10.2,3.3-17.1,3.3C1336.8,848,1331.7,838.9,1331.7,825.4z"/>
		<path class="st2" d="M1460.9,791.9h7.8l0.9,12.9h0.2c5.7-8.9,14.3-14.3,24.4-14.3c4.1,0,7.4,0.6,10.8,2.2l-2.1,8
			c-3.8-1.2-5.9-1.8-10.1-1.8c-8.2,0-16,4.2-22.5,15.6v32h-9.3v-54.6H1460.9z"/>
		<path class="st2" d="M1520.3,819.2c0-17.8,13.3-28.6,27.9-28.6c15.8,0,25,10.2,25,25.7c0,2.1-0.2,4.2-0.5,5.6h-46.2v-7.2h40.7
			l-2.4,2.6c0-12.9-6.4-19.3-16.4-19.3c-10.1,0-18.9,7.7-18.9,21.3c0,14.2,9.2,21.4,21.4,21.4c6.5,0,11.7-2,16.7-5.2l3.4,6.1
			c-5.4,3.6-12.4,6.5-21.2,6.5C1533.4,848,1520.3,837.4,1520.3,819.2z"/>
		<path class="st2" d="M1587.5,819.4c0-17.8,11.8-28.8,24.8-28.8c6.5,0,11.6,2.6,16.4,7h0.2l-0.5-10v-21h9.3v80.1h-7.7l-0.8-7.2
			h-0.3c-4.5,4.6-11,8.5-17.9,8.5C1596.9,848,1587.5,837.6,1587.5,819.4z M1628.4,832v-27.2c-5-4.6-9.6-6.3-14.3-6.3
			c-9.5,0-17.1,8.3-17.1,20.8c0,13.1,6.1,20.8,16.1,20.8C1618.5,840.1,1623.6,837.4,1628.4,832z"/>
		<path class="st2" d="M1655.5,819.4c0-17.8,11.8-28.8,24.8-28.8c6.5,0,11.6,2.6,16.4,7h0.2l-0.5-10v-21h9.3v80.1h-7.7l-0.8-7.2
			h-0.3c-4.5,4.6-11,8.5-17.9,8.5C1665,848,1655.5,837.6,1655.5,819.4z M1696.5,832v-27.2c-5-4.6-9.6-6.3-14.3-6.3
			c-9.5,0-17.1,8.3-17.1,20.8c0,13.1,6.1,20.8,16.1,20.8C1686.6,840.1,1691.7,837.4,1696.5,832z"/>
		<path class="st2" d="M1752.3,799.5H1727V792h34.7v54.7h-9.3L1752.3,799.5L1752.3,799.5z M1748.6,773.3c0-4.3,3.2-7.2,7.4-7.2
			c4.3,0,7.4,2.9,7.4,7.2c0,4.4-3.2,7.2-7.4,7.2C1751.7,780.5,1748.6,777.7,1748.6,773.3z"/>
		<path class="st2" d="M1808.1,825.4v-25.9h-15.5v-7l15.9-0.6l1.2-17.6h7.8v17.6h26.8v7.5h-26.8v26c0,9.8,3.3,14.9,13.8,14.9
			c5.1,0,9.1-1,13.1-2.5l2,6.9c-5,1.8-10.2,3.3-17.1,3.3C1813.3,848,1808.1,838.9,1808.1,825.4z"/>
		<path class="st2" d="M1875,864.7c9.6-4.3,14.3-10.3,14.2-19.7l-2-10.4l6.3,8.9c-1.8,2-4,2.6-6.3,2.6c-4.8,0-8.8-2.8-8.8-8.4
			c0-5.5,4.2-8.6,9-8.6c6.6,0,10.1,5.5,10.1,14.4c0,13.2-7.4,22.4-19.8,27L1875,864.7z"/>
		<path class="st2" d="M2005.4,791.9h7.8l0.9,12.9h0.2c5.7-8.9,14.3-14.3,24.4-14.3c4,0,7.4,0.6,10.8,2.2l-2.1,8
			c-3.8-1.2-5.8-1.8-10.1-1.8c-8.2,0-16,4.2-22.5,15.6v32h-9.3L2005.4,791.9L2005.4,791.9z"/>
		<path class="st2" d="M2066.2,832.4c0-12.3,11.5-18.2,39.7-20.5c-0.3-7.4-3.9-13.7-14.5-13.7c-7.1,0-14.1,3.4-19.1,6.5l-3.7-6.3
			c5.6-3.6,14.9-7.9,24.4-7.9c15,0,22.3,8.9,22.3,22.5v33.5h-7.8l-0.8-7.4h-0.3c-6,4.7-13.8,8.8-21.5,8.8
			C2074.6,848,2066.2,842.2,2066.2,832.4z M2105.9,832.3v-14.2c-23.4,1.8-30.5,6.4-30.5,13.6c0,6.2,5.6,8.7,11.9,8.7
			C2093.5,840.4,2099.6,837.5,2105.9,832.3z"/>
		<path class="st2" d="M2148.4,825.4v-25.9h-15.5v-7l15.9-0.6l1.2-17.6h7.8v17.6h26.8v7.5h-26.8v26c0,9.8,3.3,14.9,13.8,14.9
			c5.1,0,9.1-1,13.1-2.5l2,6.9c-5,1.8-10.2,3.3-17.1,3.3C2153.6,848,2148.4,838.9,2148.4,825.4z"/>
		<path class="st2" d="M2200.9,819.2c0-17.8,13.3-28.6,27.9-28.6c15.8,0,25,10.2,25,25.7c0,2.1-0.2,4.2-0.5,5.6h-46.2v-7.2h40.7
			l-2.4,2.6c0-12.9-6.4-19.3-16.4-19.3c-10.1,0-18.9,7.7-18.9,21.3c0,14.2,9.2,21.4,21.4,21.4c6.5,0,11.7-2,16.7-5.2l3.4,6.1
			c-5.4,3.6-12.4,6.5-21.2,6.5C2214,848,2200.9,837.4,2200.9,819.2z"/>
		<path class="st3" d="M2296.8,799.5h-25.3V792h34.7v54.7h-9.3L2296.8,799.5L2296.8,799.5z M2293.1,773.3c0-4.3,3.1-7.2,7.4-7.2
			s7.4,2.9,7.4,7.2c0,4.4-3.1,7.2-7.4,7.2S2293.1,777.7,2293.1,773.3z"/>
		<path class="st3" d="M2352.6,825.4v-25.9h-15.5v-7l15.9-0.6l1.2-17.6h7.8v17.6h26.8v7.5H2362v26c0,9.8,3.3,14.9,13.8,14.9
			c5.1,0,9.1-1,13.1-2.5l2,6.9c-5,1.8-10.2,3.3-17.1,3.3C2357.8,848,2352.6,838.9,2352.6,825.4z"/>
	</g>
</g>
<path class="st4" d="M226.2,474c0,24.8,14.5,47.2,37,57.5c-1,6.2-1.5,12.8-1.5,19c0,97.1,112.5,175.1,251.1,175.1
	S763.9,647,763.9,550.5c0-6.4-0.5-12.7-1.5-19c21.6-9.8,37-31.3,37-57c0-0.1,0-0.1,0-0.2c0-34.6-28.1-62.5-62.7-62.5
	c-16.3,0-31.9,6.2-43.7,17.5C649.3,398,589.2,378,522.5,375.9l-31.8-150c-0.5-3.1-2-5.6-4.6-7.2c-2.1-1.5-5.1-2.1-8.2-1.5
	l-104.2,22.1c-7.4-15.4-23-25.1-40.1-25.2c-24.7,0-44.7,20-44.7,44.7c0,23.9,18.8,43.5,42.6,44.6c24.7,1.1,45.6-17.9,46.7-42.6
	l93.5-20l28.8,134.6c-65.7,2.6-124.8,22.6-167.9,53.4c-11.3-10.8-26.7-17.5-43.7-17.5c-0.1,0-0.1,0-0.2,0
	C254.1,411.4,226.1,439.4,226.2,474L226.2,474z M406.4,620.9c0.1-0.1,0.1-0.1,0.2-0.2c4.5-4.4,11.8-4.3,16.2,0.2
	c19,19.5,60.6,26.2,89.9,26.2s70.4-6.7,89.9-26.2c0.1-0.1,0.1-0.1,0.2-0.2c4.5-4.4,11.8-4.3,16.2,0.2c0.1,0.1,0.1,0.1,0.2,0.2
	c4.4,4.5,4.3,11.8-0.2,16.2c-30.3,30.3-88.9,32.9-106.3,32.9c-16.9,0-75.5-2.1-106.3-32.9C402.3,632.6,402.3,625.6,406.4,620.9z
	 M418.9,435l21.9,44.5l49.1,7.1l-35.5,34.6l8.4,48.9L418.9,547L375,570.1l8.4-48.9l-35.5-34.6l49.1-7.1L418.9,435z M612,435.4
	l21.9,44.5L683,487l-35.5,34.6l8.4,48.9L612,547.4l-43.9,23.1l8.4-48.9L541,487l49.1-7.1L612,435.4z"/>
</svg>
